<?xml version="1.0" encoding="UTF-8"?>
<svg width="173px" height="24px" viewBox="0 0 173 24" version="1.1" xmlns="http://www.w3.org/2000/svg" xmlns:xlink="http://www.w3.org/1999/xlink">
    <!-- Generator: Sketch 60.1 (88133) - https://sketch.com -->
    <title>Logo</title>
    <desc>Created with Sketch.</desc>
    <g id="Riv-Gosh" stroke="none" stroke-width="1" fill="none" fill-rule="evenodd">
        <g id="1440-Table-None" transform="translate(-24.000000, -21.000000)">
            <g id="Header">
                <g id="Logo" transform="translate(23.999975, 21.192266)">
                    <path d="M135.828245,0.0554316166 C136.517939,0.125977172 137.190524,0.236312728 137.86311,0.402200505 C138.795772,0.632482728 139.655966,1.02423162 140.500206,1.46307495 C141.240646,1.84809606 141.885936,2.36440495 142.519309,2.90339606 C143.237259,3.51427828 143.87313,4.19301495 144.408661,4.96901606 C145.217724,6.14080273 145.821686,7.40581717 146.173841,8.78808717 C146.420074,9.75554162 146.593459,10.7318383 146.595381,11.7440805 C146.508112,12.5329605 146.49927,13.3404861 146.316466,14.1066838 C145.970274,15.5566161 145.503559,16.9717561 144.546676,18.1666094 C144.2693,18.5128016 144.050743,18.9060883 143.768369,19.2474749 C142.808026,20.4073438 141.672185,21.3638416 140.315096,22.0245094 C139.601183,22.3720472 138.865933,22.6992094 138.107424,22.9248783 C137.199943,23.1945661 136.261322,23.3452683 135.305401,23.4000516 C134.405416,23.4515672 133.52254,23.3585316 132.654656,23.1803416 C130.991742,22.8391472 129.427053,22.2503705 128.040362,21.2267872 C126.879724,20.3702449 125.871134,19.3699205 125.063416,18.1827561 C124.686276,17.6285794 124.382565,17.0151983 124.114992,16.3985494 C123.84146,15.7688294 123.617521,15.1120061 123.438562,14.4490316 C123.300739,13.9377205 123.232115,13.4010361 123.194824,12.8712716 C123.153689,12.2901838 123.186366,11.7039061 123.182714,11.1197427 C123.172719,9.49123606 123.618674,7.97960051 124.330473,6.52928384 C124.904064,5.36038051 125.631625,4.29162495 126.568709,3.40144384 C127.287043,2.71924717 128.058815,2.08049273 128.932465,1.57956162 C130.184216,0.861803839 131.526312,0.38874495 132.936646,0.151542728 C133.886224,-0.00838616118 134.855024,-0.0439472723 135.828245,0.0554316166 Z M90.0670542,0.462003203 C90.8928408,0.459905617 91.6719175,0.656933394 92.4383075,0.918932283 C92.8709997,1.06694339 93.3140719,1.22687228 93.6971708,1.46868784 C94.4364575,1.93521117 95.0784797,2.51706784 95.6282353,3.21329673 C96.1237842,3.84109451 96.4620953,4.53636228 96.7033342,5.28103117 C97.003393,6.20715784 97.1846586,7.15442895 96.9972419,8.13649228 C96.9482253,8.39291673 96.9603353,8.66568006 96.8807553,8.91018673 C96.6966064,9.47512784 96.4936197,10.0360323 96.2581475,10.5813667 C96.1322419,10.8733523 95.9344453,11.1376578 95.747413,11.3988878 C95.6320797,11.5595856 95.6140108,11.6995234 95.7195408,11.8623356 C95.8610164,12.0807001 96.0059519,12.2967578 96.1376242,12.5208889 C96.7511975,13.5644634 97.0422219,14.7079934 97.0633664,15.9036156 C97.0798975,16.8278201 96.9349619,17.7431823 96.5128419,18.5876145 C96.3012053,19.0114645 96.1172486,19.4579967 95.8458308,19.8414801 C95.0140853,21.0174956 93.9720486,21.9324734 92.5820897,22.4276378 C91.8033975,22.7052067 91.0247053,22.8220778 90.1996875,22.8181421 C86.401953,22.7986267 82.6038342,22.8111212 78.8057153,22.8091989 C77.5758775,22.8086223 76.8448564,22.2329167 76.4675242,21.0657434 C76.3452708,20.6878345 76.3097097,20.3210745 76.3097097,19.9372067 L76.3101182,15.3012633 L76.3102864,1.20861117 C76.3104786,0.469132283 76.3120164,0.467786728 77.0584153,0.467594505 C81.3945642,0.467017839 85.730713,0.472400061 90.0670542,0.462003203 Z M170.421844,0.496793061 C171.627462,0.655184172 172.47151,1.34007195 172.794443,2.56241306 C172.83308,2.70830973 172.833656,2.86689306 172.833849,3.01970973 C172.83585,9.41648084 172.83585,15.8130597 172.83585,22.2098308 C172.83585,22.3019053 172.832503,22.3941719 172.827505,22.4862464 C172.816549,22.6898097 172.703522,22.7932253 172.504188,22.8012986 C172.335416,22.8082186 172.166069,22.8103331 171.997105,22.8103331 L161.479474,22.8107175 L161.479474,22.8089875 C157.973725,22.8089875 154.467592,22.7972619 150.961843,22.8169104 C150.018032,22.8220586 149.40369,22.3436175 148.930246,21.6164408 C148.668632,21.2148886 148.549262,20.7673953 148.550217,20.2660797 C148.562525,13.9308197 148.55772,7.59555973 148.558489,1.26049195 C148.558489,0.513900839 148.605006,0.46815195 149.335451,0.467575283 L152.979792,0.467959728 C153.118,0.46815195 153.257938,0.464115283 153.394031,0.483337505 C153.635654,0.517360839 153.782704,0.664410839 153.80827,0.908340839 C153.819931,1.02008602 153.82211,1.13294183 153.822266,1.24588306 L153.821918,1.41523084 C153.822879,6.59715751 153.822879,11.7790842 153.823263,16.9608186 C153.823263,17.7164442 153.823648,17.7168286 154.59023,17.7170208 C155.558838,17.7174053 156.527638,17.7195197 157.496245,17.7158675 C158.02774,17.7139453 158.065031,17.6766542 158.065415,17.1305508 C158.067145,13.4400764 158.066376,9.74979417 158.066569,6.05931973 C158.066569,4.55248973 158.063493,3.04565973 158.069836,1.53863751 C158.070798,1.29451528 158.109434,1.05000862 158.137499,0.806270839 C158.165371,0.564455283 158.314151,0.464307505 158.549815,0.469305283 C158.718971,0.472573061 158.888126,0.467383061 159.05709,0.467383061 L162.516705,0.467575283 C162.655105,0.467767505 162.793698,0.469689728 162.931713,0.478339728 C163.110864,0.489680839 163.216202,0.589828617 163.229081,0.768979728 C163.240999,0.937366394 163.24196,1.10671417 163.24196,1.27586973 C163.242729,6.50373751 163.242536,11.7319897 163.242921,16.9598575 C163.243113,17.7164442 163.24369,17.7168286 164.00489,17.7170208 L166.864964,17.7170208 C167.527656,17.7162972 167.56766,17.7154032 167.570233,17.1106512 L167.57042,4.44273084 C167.57042,3.38166417 167.570228,2.32078973 167.571381,1.25972306 C167.571381,1.12151528 167.571765,0.982346394 167.586951,0.84529195 C167.612516,0.615394172 167.741882,0.476417505 167.979853,0.475648617 C168.794875,0.472765283 169.620854,0.391455283 170.421844,0.496793061 Z M123.048101,0.469459061 C123.483484,0.490411283 123.636301,0.627273505 123.64399,1.05765906 C123.655715,1.73389684 123.694736,2.41455573 123.636493,3.08598795 C123.505398,4.59743128 122.5316,5.73942351 120.898864,5.73173462 C118.239278,5.71924017 115.579499,5.72827462 112.91972,5.72827462 L112.550845,5.72885128 C111.957455,5.73423351 111.931505,5.75710795 111.931313,6.35953239 C111.929968,10.2799046 111.930544,14.2002768 111.930544,18.1206491 C111.930544,18.6894346 111.938233,19.2584124 111.928814,19.8271979 C111.914782,20.6283802 111.728903,21.3807379 111.195679,22.0035379 C110.792973,22.4740979 110.283008,22.7853057 109.649251,22.8018368 C108.834998,22.8229813 108.019783,22.8126013 107.204761,22.8077957 C106.711326,22.8051046 106.666731,22.7566646 106.664809,22.2380491 C106.660964,21.2077379 106.663463,20.1778113 106.663463,19.1476924 L106.663655,1.20624684 C106.663836,0.512256773 106.665209,0.470412191 107.288449,0.467730391 L122.771493,0.467344617 C122.863568,0.467344617 122.956219,0.46503795 123.048101,0.469459061 Z M41.543745,0.472592283 C41.813625,0.473361172 42.0831206,0.552364505 42.3526162,0.595614505 C42.4431528,0.610223394 42.5331128,0.635596728 42.6240339,0.64097895 C43.7691017,0.70671895 44.7826895,1.16593784 45.7828217,1.67667228 C46.4748217,2.02978451 47.0787839,2.51110895 47.6389195,3.02818673 C48.0948706,3.44896117 48.455095,3.97757228 48.833965,4.47658117 C49.3502739,5.15685562 49.6691706,5.94554339 49.955005,6.73865228 C50.1080139,7.16365562 50.0895606,7.65017006 50.2389173,8.07709562 C50.4503617,8.68144228 50.4004128,9.29232451 50.3813539,9.89974673 C50.3652073,10.4147101 50.2900484,10.9344789 50.1785595,11.4382934 C50.0668784,11.9430689 49.8765784,12.4303523 49.7229928,12.9259012 C49.4771406,13.7180489 48.9908184,14.3698745 48.5146839,15.0315034 C47.7436806,16.1029501 46.740665,16.9083612 45.5890617,17.5132845 C45.0135484,17.8156501 44.3669128,17.9859589 43.7456506,18.1958656 C43.4578939,18.2931301 43.1393817,18.3067778 42.8610439,18.4217267 C42.533305,18.5570512 42.2032595,18.5593578 41.8664862,18.5601267 C40.6214628,18.5630101 39.3762473,18.5620489 38.1310317,18.5630101 C37.3821339,18.5633945 37.3819417,18.5637789 37.3807884,19.2901867 L37.3807884,20.3049278 C37.3815573,21.4263523 36.7725973,22.1598723 35.8462784,22.6748356 C35.6815439,22.7663334 35.4656784,22.7972812 35.272495,22.8005489 C34.3963462,22.8143889 33.520005,22.8130434 32.6438562,22.8074689 C32.1819462,22.8043934 32.1250484,22.7438434 32.1240873,22.2588667 L32.1218527,19.4686651 L32.1227417,1.36757895 C32.1227417,0.535833394 32.1904039,0.467786728 33.0119617,0.467594505 C35.8558895,0.466825617 38.6998173,0.463557839 41.543745,0.472592283 Z M55.5316216,0.46434595 C56.0385116,0.47991595 56.5461705,0.461270394 57.0532527,0.470497061 C57.4657616,0.47818595 57.559566,0.576603728 57.5832094,0.994110394 C57.5928205,1.16268928 57.5878227,1.33203706 57.5878227,1.50119262 C57.5883994,5.42098817 57.5885916,9.34078373 57.588976,13.2607715 L57.588976,13.7959182 C57.6358783,13.8097582 57.6829727,13.8235982 57.7300672,13.8374382 C57.9926427,13.5214248 58.2640605,13.2125237 58.5152949,12.8876682 C58.8805172,12.4155704 59.2286316,11.9305937 59.5882794,11.4540748 C59.9381238,10.9902426 60.2885449,10.5266026 60.6472316,10.0696904 C61.1204827,9.46649706 61.6046905,8.87176151 62.0792872,8.26991373 C62.5244738,7.70535706 62.962356,7.13522595 63.405236,6.56893928 C63.9819027,5.83176706 64.5583772,5.09440262 65.138696,4.35972928 C65.870486,3.43302595 66.6055438,2.50901373 67.3400249,1.58423262 C67.567616,1.29743706 67.7940538,1.00948817 68.0270272,0.726921505 C68.1838805,0.53700595 68.3909038,0.464922617 68.6390627,0.465883728 C69.9609749,0.471073728 71.2830794,0.46434595 72.6049916,0.470881505 C73.0196149,0.47299595 73.0747827,0.541619283 73.0899683,0.96085595 C73.093236,1.05312262 73.0913138,1.14538928 73.0913138,1.23765595 C73.0916983,7.55542373 73.0870849,13.8733837 73.0961232,20.1913437 C73.0978494,21.3911948 72.5117638,22.1858415 71.4870272,22.7088782 C71.3567005,22.7753871 71.191966,22.7984537 71.0428016,22.7999915 C70.1360894,22.8097948 69.2289927,22.8126782 68.3220883,22.8065271 C67.899776,22.8036437 67.8403794,22.7390571 67.8298072,22.3257793 C67.8213494,22.0030382 67.827116,21.6802971 67.827116,21.3573637 L67.8269238,9.56779817 C67.4916883,9.81922484 67.3177272,10.0810315 67.1205072,10.3203482 C66.955196,10.5206437 66.7846949,10.7167104 66.6238049,10.9204659 C66.3965983,11.2082226 66.1774649,11.5025148 65.9523727,11.7920015 C64.5881716,13.5481437 63.2212794,15.3023637 61.8590005,17.0600437 C61.1166383,18.0176948 60.3861938,18.9847648 59.6419094,19.9410704 C58.9451038,20.8360571 58.242916,21.7273915 57.5259272,22.6062315 C57.4351983,22.7175282 57.239516,22.7978771 57.0915049,22.7994148 C55.677326,22.8136393 54.2629549,22.8119093 52.848776,22.8049893 C52.5029683,22.8034515 52.447416,22.7354048 52.4230038,22.4028604 C52.4151227,22.2957926 52.4191594,22.1875715 52.4191594,22.0801193 C52.4189672,15.7467815 52.4226194,9.41344373 52.4137741,3.08029817 C52.412816,2.37714928 52.6373316,1.78818039 53.1198094,1.29243928 C53.2349505,1.17422262 53.3727738,1.07080706 53.5159794,0.988343728 C54.1383949,0.629657061 54.8057905,0.442048172 55.5316216,0.46434595 Z M132.276555,5.97299273 C131.817336,6.17444162 131.358886,6.42125495 130.973096,6.73649939 C130.341839,7.25165495 129.789007,7.86138384 129.37227,8.56780051 C128.974177,9.24250051 128.728325,9.96467939 128.609916,10.7585572 C128.509,11.4355638 128.477667,12.0797005 128.634905,12.7392149 C128.677386,12.9166361 128.70795,13.0971327 128.737552,13.2772449 C128.802523,13.6751449 128.984173,14.0269116 129.156404,14.3848294 C129.610433,15.3276794 130.232656,16.1565416 131.079972,16.7522383 C132.189671,17.5324683 133.430465,18.0086027 134.878091,17.9007661 C135.045873,17.920153 135.216245,17.9268926 135.388188,17.9222355 L135.647154,17.9068589 C135.993674,17.875377 136.344444,17.8008105 136.691323,17.6931661 C138.465726,17.1418727 139.702292,15.9598983 140.530385,14.3386961 C140.915599,13.5848005 141.143382,12.7720849 141.089367,11.9026638 C141.062649,11.4738161 141.14146,11.0255538 141.044003,10.6168894 C140.801419,9.59926495 140.408516,8.65199384 139.753423,7.79718162 C138.93917,6.73476939 137.885407,6.05968495 136.645959,5.69753828 C136.155856,5.55433273 135.664408,5.46817446 135.174497,5.43995339 L134.880759,5.42998033 C134.000235,5.42096126 133.126562,5.60023539 132.276555,5.97299273 Z M90.111073,14.3074023 L88.8052577,14.3152855 L88.8052577,14.3152855 L86.1935842,14.3116312 L86.1935842,14.3116312 C84.8416853,14.3144953 83.4897864,14.3121886 82.1378875,14.3156486 C81.6204253,14.3169942 81.5800586,14.3573608 81.5767908,14.8625208 C81.5721775,15.6306408 81.5721775,16.3987608 81.5765986,17.1668808 C81.5770009,17.2336693 81.577979,17.2923719 81.5805332,17.3439621 C81.5948316,17.6305218 81.657748,17.6976149 81.9400903,17.7121471 L82.0300076,17.71505 L82.0300076,17.71505 L82.1336586,17.7158867 L82.1336586,17.7158867 L84.6684859,17.7186277 L84.6684859,17.7186277 L87.2032705,17.7172487 L87.2032705,17.7172487 L89.7379697,17.7022197 C90.1395219,17.6981831 90.545303,17.5526708 90.9370519,17.4329164 C91.1029397,17.3825542 91.2738253,17.2570331 91.3795475,17.1178642 C91.780523,16.5900219 91.988123,16.0066275 91.6878719,15.3571086 C91.3803164,14.6918275 90.8886119,14.2985408 90.111073,14.3075753 L90.111073,14.3074023 Z M37.3823262,6.28308562 L37.3801156,7.89602228 L37.380601,11.0527917 L37.380601,11.0527917 L37.3809614,12.5966245 C37.3811776,12.8486999 37.3885572,13.013978 37.4328411,13.1247746 L37.4582154,13.1757824 C37.5443327,13.316083 37.7246379,13.3459187 38.0995073,13.3743556 C38.1760117,13.3801223 38.2529006,13.3805067 38.3297895,13.3805067 C38.7214423,13.3807951 39.1138639,13.391127 39.5058291,13.3946831 L40.093262,13.392833 L40.093262,13.392833 L40.6791103,13.3682045 C41.3457369,13.3222634 42.021398,13.3445612 42.6751458,13.1054367 C44.0708714,12.5956634 44.8512936,11.5580478 45.0944547,10.1642445 C45.2801414,9.10029451 45.0456303,8.07459673 44.3332547,7.18037895 C43.6162658,6.28039451 42.6955214,5.79234228 41.5775569,5.74121117 C40.3663647,5.68585117 39.1509436,5.72583339 37.9372525,5.72967784 C37.7540922,5.7302957 37.631222,5.73581718 37.5488522,5.76596188 L37.5041513,5.78716125 C37.3970135,5.85241369 37.3834246,5.990798 37.3823262,6.28308562 Z M90.1056908,5.71603006 L89.1272527,5.7359551 L89.1272527,5.7359551 L88.1482199,5.73818367 C87.4954092,5.73592506 86.8424303,5.72833228 86.1897397,5.72833228 L86.1897397,5.72833228 L86.1897397,5.72910117 C84.8228475,5.72910117 83.4559553,5.72602562 82.089063,5.73102339 C81.6352264,5.73256117 81.5819808,5.78676784 81.5777519,6.23426117 C81.5708319,6.94067784 81.5744842,7.64709451 81.5756375,8.35370339 C81.5765421,9.006083 81.5789791,9.04752319 82.1520209,9.05030139 L86.090481,9.05055701 L86.090481,9.05055701 L89.9148142,9.04974006 L89.9148142,9.04974006 L90.0760646,9.05012451 L90.0760646,9.05012451 L90.2371708,9.04416562 C91.1586842,8.97054451 91.9168086,8.09516451 91.8051275,7.22843451 C91.6851808,6.29538784 90.8040342,5.69315562 90.1056908,5.71603006 L90.1056908,5.71603006 Z" id="Combined-Shape" fill="#05AEEF"></path>
                    <g id="Group-3" transform="translate(0.000000, 0.463687)">
                        <path d="M10.2600782,5.15726953 C10.2602704,6.60258842 10.2602704,8.04771509 10.2600782,9.49303398 C10.2600782,9.61586398 10.2650759,9.73946287 10.2548882,9.8617162 C10.2293226,10.1650429 10.1683882,10.221364 9.85314371,10.2451995 C9.76145371,10.2521195 9.6688026,10.249044 9.57653594,10.249044 C6.65533482,10.2492362 3.73413371,10.2492362 0.813124824,10.2488518 C0.705288157,10.2488518 0.597067046,10.252504 0.490383713,10.2423162 C0.170525935,10.2117529 0.0550003797,10.1000718 0.0217459353,9.78444287 C0.00886704637,9.66257398 0.0140570464,9.53859064 0.0140570464,9.41576064 C0.0136726019,6.5712562 0.0136726019,3.7271362 0.0140570464,0.882823978 C0.0142492686,0.744423978 0.00771371304,0.604678423 0.025013713,0.468200645 C0.0623048242,0.172947311 0.204357046,0.0399295337 0.507107046,0.00859731149 C0.628975935,-0.00389713296 0.752959269,0.0009084226 0.875789269,0.0009084226 C3.76623482,0.000523978156 6.65668038,0.000716200378 9.54712594,0.000716200378 C9.60863705,0.000716200378 9.67014816,-0.000244910733 9.73165927,0.00148508927 C10.1977982,0.0141717559 10.2570026,0.0662639782 10.2583482,0.544897311 C10.262577,2.08229064 10.2598859,3.6198762 10.2600782,5.15726953" id="Fill-14" fill="#ED028D"></path>
                        <path d="M12.2827365,5.15192576 C12.2827365,3.73832353 12.2825443,2.32491353 12.2829287,0.911503534 C12.2829287,0.773295756 12.2769698,0.634126867 12.2908098,0.497072423 C12.3215654,0.196052423 12.4576587,0.0532313115 12.7517587,0.0170935337 C12.8882365,0.000177978156 13.027982,0.00671353371 13.1661898,0.00671353371 C15.9930098,0.00613686704 18.820022,0.00632908927 21.646842,0.00652131149 C21.769672,0.00652131149 21.8934632,0.00190797816 22.015332,0.0134413115 C22.3424943,0.0447735337 22.482432,0.181251311 22.5160709,0.503415756 C22.5287576,0.625284645 22.5237598,0.749075756 22.5237598,0.871905756 C22.523952,3.6835402 22.523952,6.49498242 22.523952,9.30661687 C22.523952,9.36812798 22.5245287,9.42944687 22.5231832,9.49095798 C22.5106887,10.1099135 22.3778632,10.2448535 21.7542943,10.245238 C18.8505854,10.246968 15.9468765,10.2460069 13.0431676,10.2458146 C12.9970343,10.2458146 12.9510932,10.2463913 12.9049598,10.245238 C12.377502,10.2298602 12.2856198,10.1450902 12.284082,9.6226302 C12.2802376,8.13252353 12.2827365,6.64222464 12.2827365,5.15192576" id="Fill-16" fill="#A4CE3C"></path>
                        <path d="M17.3742803,22.3379764 C15.929538,22.3379764 14.4846036,22.3381686 13.0398614,22.3377842 C12.9016536,22.337592 12.7634458,22.3347086 12.6250458,22.330672 C12.3982236,22.3239442 12.2932703,22.1984231 12.2890414,21.9785209 C12.2869269,21.8708764 12.2846203,21.7634242 12.2846203,21.6557798 C12.284428,18.7816731 12.2838514,15.9075664 12.2848125,13.0332675 C12.2850047,12.3293498 12.3342136,12.2791798 13.0506258,12.2787953 C15.9401103,12.2772575 18.8295947,12.2782186 21.7192714,12.2782186 C21.795968,12.2782186 21.8730492,12.2761042 21.9497458,12.2807175 C22.3182358,12.303592 22.4722058,12.4466053 22.5137258,12.8149031 C22.5275658,12.9365798 22.5231447,13.0605631 22.5231447,13.1833931 C22.5235292,16.0115586 22.5233369,18.8397242 22.5233369,21.6676975 C22.5233369,21.6984531 22.5238166,21.7292086 22.5231447,21.7599642 C22.515648,22.2893442 22.4743203,22.335862 21.9391736,22.3368231 C20.4175425,22.3400909 18.8959114,22.3379764 17.3742803,22.3379764" id="Fill-18" fill="#F3ACCA"></path>
                        <path d="M10.2580214,17.3251861 C10.2582136,18.739365 10.2582136,20.1537361 10.2580214,21.5681072 C10.2580214,21.6911294 10.2626347,21.8143439 10.2541769,21.9369816 C10.2313025,22.2679883 10.1736358,22.3218105 9.82936582,22.3439161 C9.75286138,22.3489139 9.67558805,22.3467994 9.59889138,22.3467994 C7.96923138,22.346415 6.33937916,22.3270005 4.71029582,22.3521816 C3.73496027,22.3673672 2.89975471,21.995225 2.15412471,21.4506594 C0.731103602,20.4115061 0.0800469353,18.9323561 0.0231491575,17.2040861 C-0.0225997314,15.8066305 0.0133458242,14.4064839 0.0146913797,13.0074905 C0.0146913797,12.8848528 0.0164213797,12.760485 0.0356436019,12.6399616 C0.0687058242,12.4342839 0.196149157,12.3093394 0.405286935,12.2889639 C0.55791138,12.2739705 0.712265824,12.2737783 0.86585138,12.2737783 C3.75591249,12.2728172 6.6459736,12.272625 9.53622694,12.2733939 C10.2557147,12.2735861 10.2570603,12.2751239 10.2574447,12.9898061 C10.2584058,14.4349328 10.2578292,15.8798672 10.2580214,17.3251861" id="Fill-20" fill="#05AEEF"></path>
                    </g>
                </g>
            </g>
        </g>
    </g>
</svg>