<svg width="36" height="45" xmlns="http://www.w3.org/2000/svg"><path d="M15.466.852a3.834 3.834 0 014.59-.173l.178.132 3.582 2.792 4.518.48a3.835 3.835 0 013.33 2.948l.041.199.03.195.557 4.508 2.856 3.533a3.835 3.835 0 01.292 4.405l-.12.184-.13.18-2.794 3.581-.479 4.518a3.835 3.835 0 01-2.948 3.33l-.199.041-.195.03-3.575.441v10.89a1.5 1.5 0 01-2.208 1.322l-.124-.074L18 41.202l-4.668 3.112a1.5 1.5 0 01-2.325-1.104L11 43.066V32.27l-3.334-.353a3.835 3.835 0 01-3.33-2.948l-.041-.199-.03-.195-.558-4.509-2.855-3.532a3.835 3.835 0 01-.292-4.405l.12-.184.13-.18 2.793-3.582.48-4.517a3.835 3.835 0 012.948-3.33l.199-.041.195-.03 4.508-.558L15.466.852zM13 33.033v9.097l3.89-2.592a2 2 0 012.072-.09l.147.09L23 42.13v-8.978l-2.466 1.995a3.835 3.835 0 01-4.405.292l-.184-.12-.18-.13L13 33.032zm6.004-30.645a1.834 1.834 0 00-2.144-.08l-.137.1-3.57 2.885c-.221.18-.482.304-.759.365l-.168.029-4.555.563a1.834 1.834 0 00-1.576 1.47l-.023.157-.484 4.565c-.03.283-.126.556-.28.795l-.098.139-2.822 3.62a1.834 1.834 0 00-.08 2.144l.1.137 2.885 3.57c.18.221.304.482.365.759l.029.168.563 4.555a1.834 1.834 0 001.47 1.576l.157.023 4.565.484c.283.03.556.126.795.28l.139.098 3.62 2.822c.627.49 1.493.515 2.144.08l.137-.1 3.57-2.885c.221-.18.482-.304.759-.365l.168-.029 4.555-.563a1.834 1.834 0 001.576-1.47l.023-.157.484-4.565c.03-.283.126-.556.28-.795l.098-.139 2.822-3.62c.49-.627.515-1.493.08-2.144l-.1-.137-2.885-3.57a1.834 1.834 0 01-.365-.759l-.029-.168-.563-4.555a1.834 1.834 0 00-1.47-1.576l-.157-.023-4.565-.484a1.834 1.834 0 01-.795-.28l-.139-.098-3.62-2.822z" fill="#1E1E1E"/><path d="M24.293 13.293a1 1 0 011.497 1.32l-.083.094L16 24.414l-5.707-5.707a1 1 0 011.32-1.497l.094.083L16 21.585l8.293-8.292z" fill="#AF20D5"/></svg>