<svg width="48" height="48" xmlns="http://www.w3.org/2000/svg"><path fill="#D0021B" d="M24 0c13.255 0 24 10.745 24 24S37.255 48 24 48a23.89 23.89 0 01-13.455-4.124 1 1 0 011.122-1.655A21.89 21.89 0 0024 46c12.15 0 22-9.85 22-22S36.15 2 24 2 2 11.85 2 24c0 4.998 1.67 9.739 4.695 13.586a1 1 0 01-1.573 1.236A23.898 23.898 0 010 24C0 10.745 10.745 0 24 0zm-5.387 17.21l.094.083L24 22.585l5.293-5.292.094-.083a1 1 0 011.403 1.403l-.083.094L25.415 24l5.292 5.293a1 1 0 01-1.32 1.497l-.094-.083L24 25.415l-5.293 5.292-.094.083a1 1 0 01-1.403-1.403l.083-.094L22.585 24l-5.292-5.293a1 1 0 011.32-1.497z"/></svg>