<svg xmlns="http://www.w3.org/2000/svg" viewBox="0 0 45 33"><path d="M22.6.1c3.4 0 6.9 1.3 9.5 3.9 2 2 3.2 4.6 3.7 7.2C41 11.9 45 16.5 45 22c0 6-4.9 11-11 11H9.5C4.4 33 0 28.8 0 23.5c0-5.1 4-9.2 9.1-9.4 0-3.8 1.3-7.3 4-10.1C15.7 1.4 19.2.1 22.6.1zm0 1.9c-2.9 0-5.8 1.1-8.1 3.3-2.6 2.6-3.7 6.1-3.3 9.5 0 .3-.1.6-.2.8-.2.2-.5.3-.8.3h-.6c-4.2 0-7.5 3.3-7.5 7.5S5.4 31 9.6 31H34c5 0 9-4 9-9 0-4.7-3.6-8.5-8.1-8.9-.5 0-.8-.4-.9-.9-.3-2.5-1.4-4.9-3.3-6.8C28.5 3.2 25.5 2 22.6 2zm.5 9.9c.5 0 1 .4 1 1v10.5l3.3-3.3c.4-.4 1-.4 1.4 0s.4 1 0 1.4l-5 5c-.4.4-1 .4-1.4 0l-5-5c-.4-.4-.4-1 0-1.4s1-.4 1.4 0l3.3 3.3V12.9c0-.5.4-1 1-1z"/></svg>