<svg xmlns="http://www.w3.org/2000/svg" width="24" height="24"><path d="M9.751 3.58c1.674 2.173 1.69 3.648.339 5.11l-.255.265-.447.443.06-.073c.005-.002.008-.002.01.002l.033.116c.063.198.198.466.405.784.476.733 1.269 1.643 2.304 2.679 1.037 1.036 1.947 1.828 2.68 2.305.318.207.586.342.783.404l.116.033c.005.003.005.007 0 .012l-.061.05.529-.531.171-.163c1.511-1.394 3.035-1.331 5.33.513 2.343 1.885 1.987 3.753.052 5.715l-.156.155-.95.904c-2.24 1.962-8.057-.284-12.885-5.111C2.981 12.362.735 6.547 2.698 4.305l.885-.91.16-.153c1.954-1.852 3.837-2.219 5.68-.067l.154.185.173.22zM8.019 4.613c-.974-1.211-1.643-1.121-2.89.07l-.141.137-.767.783c-.35.35-.336 1.634.31 3.347.81 2.146 2.424 4.558 4.692 6.827 2.269 2.269 4.68 3.883 6.827 4.692 1.713.646 2.998.66 3.347.31l.715-.683.273-.265.257-.268c.95-1.03.94-1.601-.148-2.476l-.342-.269c-1.184-.906-1.628-.954-2.214-.475l-.164.143-.138.13-.417.42-.207.202c-1.299 1.155-3.042.154-5.576-2.28l-.65-.638-.432-.437c-2.58-2.648-3.672-4.453-2.486-5.788l.101-.107.443-.439.209-.216c.624-.676.657-1.086-.333-2.377l-.269-.343z"/></svg>