<svg xmlns="http://www.w3.org/2000/svg" viewBox="0 0 44 33"><path d="M26.5 0C36.2 0 44 7.4 44 16.5c0 9-7.7 16.3-17.2 16.5H23c-.6 0-1-.4-1-1 0-.5.4-.9.9-1h3.6C35.1 31 42 24.5 42 16.5 42 8.6 35.2 2.2 26.8 2h-9.3C8.9 2 2 8.5 2 16.5S8.9 31 17.5 31c.6 0 1 .4 1 1s-.4 1-1 1C7.8 33 0 25.6 0 16.5 0 7.5 7.7.2 17.2 0h9.3zm-4.7 18c-4.3.2-7.8 4.2-7.8 7.9 0 .6-.4 1-1 1s-1-.4-1-1c0-3.7 2.6-7.5 6.3-9.1-1.4-1.1-2.3-2.9-2.3-4.8 0-3.3 2.7-6 6-6s6 2.7 6 6c0 1.9-.9 3.7-2.3 4.8 3.7 1.6 6.3 5.5 6.3 9.1 0 .6-.4 1-1 1s-1-.4-1-1c0-3.7-3.6-7.9-8-7.9h-.2zM22 8c-2.2 0-4 1.8-4 4s1.8 4 4 4 4-1.8 4-4-1.8-4-4-4z"/></svg>