<svg xmlns="http://www.w3.org/2000/svg" viewBox="0 0 45 33"><path d="M22.5.1C25.9.1 29.4 1.4 32 4c2 2 3.3 4.6 3.7 7.2 5.2.8 9.2 5.3 9.2 10.8 0 6-4.9 11-11 11H9.5C4.3 33 0 28.8 0 23.5c0-5.1 4-9.2 9.1-9.4C9 10.4 10.2 6.7 13 4 15.6 1.4 19.1.1 22.5.1zm0 1.9c-2.9 0-5.9 1.1-8.1 3.3-2.6 2.6-3.7 6.1-3.3 9.5 0 .3-.1.6-.2.8s-.5.4-.8.4h-.6C5.3 16 2 19.3 2 23.5S5.4 31 9.5 31H34c5 0 9-4 9-9 0-4.7-3.6-8.5-8.1-8.9-.5 0-.8-.4-.9-.9-.3-2.5-1.4-4.9-3.3-6.8C28.4 3.2 25.4 2 22.5 2zm1.2 10.3l5 5c.4.4.4 1 0 1.4-.4.4-1 .4-1.4 0L24 15.4V26c0 .6-.4 1-1 1s-1-.4-1-1V15.4l-3.3 3.3c-.4.4-1 .4-1.4 0-.4-.4-.4-1 0-1.4l5-5c.4-.4 1-.4 1.4 0z"/></svg>