<svg xmlns="http://www.w3.org/2000/svg" width="158" height="55" viewBox="0 0 158 55">
    <g fill="none" fill-rule="nonzero">
        <path fill="#A3CE3B" d="M37.293 47.293a1 1 0 0 1 1.32-.083l.094.083 6 6a1 1 0 0 1-1.32 1.497l-.094-.083-6-6a1 1 0 0 1 0-1.414z"/>
        <path fill="#A3CE3B" d="M44.707 47.293a1 1 0 0 0-1.32-.083l-.094.083-6 6a1 1 0 0 0 1.32 1.497l.094-.083 6-6a1 1 0 0 0 0-1.414z"/>
        <path fill="#ED028D" d="M24.293 22.293a1 1 0 0 1 1.32-.083l.094.083 4 4a1 1 0 0 1-1.32 1.497l-.094-.083-4-4a1 1 0 0 1 0-1.414z"/>
        <path fill="#ED028D" d="M29.707 22.293a1 1 0 0 0-1.32-.083l-.094.083-4 4a1 1 0 0 0 1.32 1.497l.094-.083 4-4a1 1 0 0 0 0-1.414z"/>
        <path fill="#04ADEF" d="M140.293 43.293a1 1 0 0 1 1.32-.083l.094.083 4 4a1 1 0 0 1-1.32 1.497l-.094-.083-4-4a1 1 0 0 1 0-1.414z"/>
        <path fill="#04ADEF" d="M145.707 43.293a1 1 0 0 0-1.32-.083l-.094.083-4 4a1 1 0 0 0 1.32 1.497l.094-.083 4-4a1 1 0 0 0 0-1.414z"/>
        <path fill="#F1ACCB" d="M125.707 4.293a1 1 0 0 0-1.32-.083l-.094.083-9 9a1 1 0 0 0 1.32 1.497l.094-.083 9-9a1 1 0 0 0 0-1.414z"/>
        <path fill="#F1ACCB" d="M115.293 4.293a1 1 0 0 1 1.32-.083l.094.083 9 9a1 1 0 0 1-1.32 1.497l-.094-.083-9-9a1 1 0 0 1 0-1.414z"/>
        <path fill="#ED028D" d="M125 32a5 5 0 1 0 0 10 5 5 0 0 0 0-10zm0 2a3 3 0 1 1 0 6 3 3 0 0 1 0-6zM39 0a3 3 0 1 0 0 6 3 3 0 0 0 0-6zm0 2a1 1 0 1 1 0 2 1 1 0 0 1 0-2z"/>
        <circle cx="11.5" cy="38.5" r="1.5" fill="#F1ACCB"/>
        <circle cx="156.5" cy="26.5" r="1.5" fill="#A3CE3B"/>
        <circle cx="1.5" cy="23.5" r="1.5" fill="#A3CE3B"/>
        <path fill="#04ADEF" d="M79 1c14.912 0 27 12.088 27 27S93.912 55 79 55a27 27 0 0 1-27-27C52 13.088 64.088 1 79 1zm0 2C65.193 3 54 14.193 54 28a25 25 0 0 0 25 25c13.807 0 25-11.193 25-25S92.807 3 79 3z"/>
        <path fill="#04ADEF" d="M77 31.586l9.293-9.293a1 1 0 0 1 1.414 1.414L77 34.414l-5.207-5.207a1 1 0 0 1 1.414-1.414L77 31.586z"/>
    </g>
</svg>
