<?xml version="1.0" encoding="UTF-8"?>
<svg width="158px" height="55px" viewBox="0 0 158 55" version="1.1" xmlns="http://www.w3.org/2000/svg" xmlns:xlink="http://www.w3.org/1999/xlink">
    <!-- Generator: Sketch 61.2 (89653) - https://sketch.com -->
    <title>icon</title>
    <desc>Created with Sketch.</desc>
    <g id="Riv-Gosh" stroke="none" stroke-width="1" fill="none" fill-rule="evenodd">
        <g id="1440-Popup-1-(Cancel-order)-2" transform="translate(-975.000000, -99.000000)" fill-rule="nonzero">
            <g id="icon" transform="translate(975.000000, 99.000000)">
                <path d="M37.2928932,47.2928932 C37.6533772,46.9324093 38.2206082,46.9046797 38.6128994,47.2097046 L38.7071068,47.2928932 L44.7071068,53.2928932 C45.0976311,53.6834175 45.0976311,54.3165825 44.7071068,54.7071068 C44.3466228,55.0675907 43.7793918,55.0953203 43.3871006,54.7902954 L43.2928932,54.7071068 L37.2928932,48.7071068 C36.9023689,48.3165825 36.9023689,47.6834175 37.2928932,47.2928932 Z" id="Path-14" fill="#A3CE3B"></path>
                <path d="M37.2928932,47.2928932 C37.6533772,46.9324093 38.2206082,46.9046797 38.6128994,47.2097046 L38.7071068,47.2928932 L44.7071068,53.2928932 C45.0976311,53.6834175 45.0976311,54.3165825 44.7071068,54.7071068 C44.3466228,55.0675907 43.7793918,55.0953203 43.3871006,54.7902954 L43.2928932,54.7071068 L37.2928932,48.7071068 C36.9023689,48.3165825 36.9023689,47.6834175 37.2928932,47.2928932 Z" id="Path-14" fill="#A3CE3B" transform="translate(41.000000, 51.000000) scale(-1, 1) translate(-41.000000, -51.000000) "></path>
                <path d="M24.2928932,22.2928932 C24.6533772,21.9324093 25.2206082,21.9046797 25.6128994,22.2097046 L25.7071068,22.2928932 L29.7071068,26.2928932 C30.0976311,26.6834175 30.0976311,27.3165825 29.7071068,27.7071068 C29.3466228,28.0675907 28.7793918,28.0953203 28.3871006,27.7902954 L28.2928932,27.7071068 L24.2928932,23.7071068 C23.9023689,23.3165825 23.9023689,22.6834175 24.2928932,22.2928932 Z" id="Path-14" fill="#ED028D"></path>
                <path d="M24.2928932,22.2928932 C24.6533772,21.9324093 25.2206082,21.9046797 25.6128994,22.2097046 L25.7071068,22.2928932 L29.7071068,26.2928932 C30.0976311,26.6834175 30.0976311,27.3165825 29.7071068,27.7071068 C29.3466228,28.0675907 28.7793918,28.0953203 28.3871006,27.7902954 L28.2928932,27.7071068 L24.2928932,23.7071068 C23.9023689,23.3165825 23.9023689,22.6834175 24.2928932,22.2928932 Z" id="Path-14" fill="#ED028D" transform="translate(27.000000, 25.000000) scale(-1, 1) translate(-27.000000, -25.000000) "></path>
                <path d="M140.292893,43.2928932 C140.653377,42.9324093 141.220608,42.9046797 141.612899,43.2097046 L141.707107,43.2928932 L145.707107,47.2928932 C146.097631,47.6834175 146.097631,48.3165825 145.707107,48.7071068 C145.346623,49.0675907 144.779392,49.0953203 144.387101,48.7902954 L144.292893,48.7071068 L140.292893,44.7071068 C139.902369,44.3165825 139.902369,43.6834175 140.292893,43.2928932 Z" id="Path-14" fill="#04ADEF"></path>
                <path d="M140.292893,43.2928932 C140.653377,42.9324093 141.220608,42.9046797 141.612899,43.2097046 L141.707107,43.2928932 L145.707107,47.2928932 C146.097631,47.6834175 146.097631,48.3165825 145.707107,48.7071068 C145.346623,49.0675907 144.779392,49.0953203 144.387101,48.7902954 L144.292893,48.7071068 L140.292893,44.7071068 C139.902369,44.3165825 139.902369,43.6834175 140.292893,43.2928932 Z" id="Path-14" fill="#04ADEF" transform="translate(143.000000, 46.000000) scale(-1, 1) translate(-143.000000, -46.000000) "></path>
                <path d="M115.292893,4.29289322 C115.653377,3.93240926 116.220608,3.90467972 116.612899,4.20970461 L116.707107,4.29289322 L125.707107,13.2928932 C126.097631,13.6834175 126.097631,14.3165825 125.707107,14.7071068 C125.346623,15.0675907 124.779392,15.0953203 124.387101,14.7902954 L124.292893,14.7071068 L115.292893,5.70710678 C114.902369,5.31658249 114.902369,4.68341751 115.292893,4.29289322 Z" id="Path-14-Copy-2" fill="#F1ACCB" transform="translate(120.500000, 9.500000) scale(-1, 1) translate(-120.500000, -9.500000) "></path>
                <path d="M115.292893,4.29289322 C115.653377,3.93240926 116.220608,3.90467972 116.612899,4.20970461 L116.707107,4.29289322 L125.707107,13.2928932 C126.097631,13.6834175 126.097631,14.3165825 125.707107,14.7071068 C125.346623,15.0675907 124.779392,15.0953203 124.387101,14.7902954 L124.292893,14.7071068 L115.292893,5.70710678 C114.902369,5.31658249 114.902369,4.68341751 115.292893,4.29289322 Z" id="Path-14-Copy-2" fill="#F1ACCB"></path>
                <path d="M125,32 C122.238576,32 120,34.2385763 120,37 C120,39.7614237 122.238576,42 125,42 C127.761424,42 130,39.7614237 130,37 C130,34.2385763 127.761424,32 125,32 Z M125,34 C126.656854,34 128,35.3431458 128,37 C128,38.6568542 126.656854,40 125,40 C123.343146,40 122,38.6568542 122,37 C122,35.3431458 123.343146,34 125,34 Z" id="Oval" fill="#ED028D"></path>
                <path d="M39,0 C37.3431458,0 36,1.34314575 36,3 C36,4.65685425 37.3431458,6 39,6 C40.6568542,6 42,4.65685425 42,3 C42,1.34314575 40.6568542,0 39,0 Z M39,2 C39.5522847,2 40,2.44771525 40,3 C40,3.55228475 39.5522847,4 39,4 C38.4477153,4 38,3.55228475 38,3 C38,2.44771525 38.4477153,2 39,2 Z" id="Oval-Copy" fill="#ED028D"></path>
                <circle id="Oval-Copy-2" fill="#F1ACCB" cx="11.5" cy="38.5" r="1.5"></circle>
                <circle id="Oval-Copy-3" fill="#A3CE3B" cx="156.5" cy="26.5" r="1.5"></circle>
                <circle id="Oval-Copy-5" fill="#A3CE3B" cx="1.5" cy="23.5" r="1.5"></circle>
                <path d="M79,1 C93.9116882,1 106,13.0883118 106,28 C106,42.9116882 93.9116882,55 79,55 C71.8391548,55 64.9715991,52.1553653 59.9081169,47.0918831 C54.8446347,42.0284009 52,35.1608452 52,28 C52,13.0883118 64.0883118,1 79,1 Z M79,3 C65.1928813,3 54,14.1928813 54,28 C54,34.6304122 56.633921,40.9892601 61.3223305,45.6776695 C66.0107399,50.366079 72.3695878,53 79,53 C92.8071187,53 104,41.8071187 104,28 C104,14.1928813 92.8071187,3 79,3 Z" id="Path" fill="#04ADEF"></path>
                <path d="M78.698,32.631 C79.336,32.573 79.597,32.051 79.597,31.587 L79.597,31.529 L79.597,31.529 L79.568,31.123 L79.568,30.891 L79.568,30.891 C79.568,27.324 85.194,27.382 85.194,22.017 C85.194,19.291 83.048,17 79.307,17 C77.19,17 75.798,17.754 74.348,19.059 C74.116,19.262 74,19.552 74,19.842 C74,20.103 74.087,20.335 74.232,20.509 C74.464,20.799 74.754,20.915 75.044,20.915 C75.305,20.915 75.595,20.799 75.827,20.625 C76.9,19.784 77.741,19.32 79.162,19.32 C81.221,19.32 82.7,20.741 82.7,22.51 C82.7,26.57 77.422,26.396 77.422,30.543 C77.422,30.717 77.422,30.92 77.451,31.123 L77.509,31.645 C77.567,32.167 77.915,32.631 78.582,32.631 L78.698,32.631 L78.698,32.631 Z M78.64,37.677 C79.539,37.677 80.177,36.894 80.177,36.024 C80.177,35.27 79.539,34.487 78.64,34.487 C77.596,34.487 76.958,35.27 76.958,36.024 C76.958,36.894 77.596,37.677 78.64,37.677 Z" id="?" fill="#04ADEF" transform="translate(79.597000, 27.338500) rotate(-23.000000) translate(-79.597000, -27.338500) "></path>
            </g>
        </g>
    </g>
</svg>