<svg width="36px" height="45px" viewBox="0 0 36 45" xmlns="http://www.w3.org/2000/svg" xmlns:xlink="http://www.w3.org/1999/xlink">
  <g>
      <path d="M15.4662802,0.852153057 C16.7948909,-0.221614745 18.6647259,-0.282189765 20.0554635,0.679332211 L20.2340632,0.810545244 L23.8160003,3.60300025 L28.3337486,4.08303056 C29.9724155,4.25685939 31.3005359,5.45346535 31.6648465,7.0308882 L31.7053183,7.23000303 L31.7345015,7.42494114 L32.2920003,11.9330003 L35.1478474,15.4662802 C36.1749297,16.7371252 36.2750076,18.5031547 35.4402885,19.8714298 L35.3206683,20.0554635 L35.1894553,20.2340632 L32.3960003,23.8160003 L31.9169699,28.3337486 C31.7431411,29.9724155 30.5465351,31.3005359 28.9691123,31.6648465 L28.7699975,31.7053183 L28.5750594,31.7345015 L25,32.176 L25,43.0657417 C25,43.3618792 24.9123432,43.6513907 24.7480757,43.897792 C24.3155781,44.5465384 23.4651757,44.7496922 22.7919568,44.3882358 L22.66795,44.3138171 L18,41.2018507 L13.3320505,44.3138171 C13.0856493,44.4780847 12.7961377,44.5659011 12.5,44.5659011 C11.7203041,44.5659011 11.0795516,43.9708536 11.0068668,43.2102017 L11,43.0657417 L11,32.27 L7.66625187,31.9169699 C6.02758505,31.7431411 4.69946457,30.5465351 4.33515396,28.9691123 L4.29468223,28.7699975 L4.26549896,28.5750594 L3.70700025,24.0660003 L0.852153057,20.5337203 C-0.174929188,19.2628753 -0.275007073,17.4968458 0.559711961,16.1285707 L0.679332211,15.944537 L0.810545244,15.7659373 L3.60300025,12.1830003 L4.08303056,7.66625187 C4.25685939,6.02758505 5.45346535,4.69946457 7.0308882,4.33515396 L7.23000303,4.29468223 L7.42494114,4.26549896 L11.9330003,3.70700025 L15.4662802,0.852153057 Z M13,33.033 L13,42.1300003 L16.8905999,39.5377501 C17.5144131,39.1218746 18.3136106,39.0921692 18.9624787,39.4486339 L19.1094006,39.5377501 L23,42.1310003 L23,33.153 L20.5337203,35.1478474 C19.2628753,36.1749297 17.4968458,36.2750076 16.1285707,35.4402885 L15.944537,35.3206683 L15.7659373,35.1894553 L13,33.033 Z M19.0042608,2.38775354 C18.3766162,1.89835793 17.5114509,1.87291658 16.8596605,2.30749459 L16.7234214,2.40765813 L13.1535213,5.29281002 C12.9315289,5.47222171 12.6713701,5.59684948 12.3941039,5.65775435 L12.2258597,5.686579 L7.67059419,6.25035527 C6.8772013,6.34854847 6.24535389,6.94719799 6.09535256,7.72036357 L6.07187181,7.87722699 L5.58768175,12.441638 C5.55757264,12.7254735 5.46173774,12.9975587 5.30874714,13.2366818 L5.21016267,13.3760305 L2.38775354,16.9957397 C1.89835793,17.6233843 1.87291658,18.4885496 2.30749459,19.14034 L2.40765813,19.2765791 L5.29281002,22.8464792 C5.47222171,23.0684716 5.59684948,23.3286304 5.65775435,23.6058966 L5.686579,23.7741408 L6.25035527,28.3294063 C6.34854847,29.1227992 6.94719799,29.7546466 7.72036357,29.9046479 L7.87722699,29.9281287 L12.441638,30.4123188 C12.7254735,30.4424279 12.9975587,30.5382628 13.2366818,30.6912534 L13.3760305,30.7898378 L16.9957397,33.612247 C17.6233843,34.1016426 18.4885496,34.1270839 19.14034,33.6925059 L19.2765791,33.5923424 L22.8464792,30.7071905 C23.0684716,30.5277788 23.3286304,30.403151 23.6058966,30.3422462 L23.7741408,30.3134215 L28.3294063,29.7496452 C29.1227992,29.651452 29.7546466,29.0528025 29.9046479,28.2796369 L29.9281287,28.1227735 L30.4123188,23.5583625 C30.4424279,23.274527 30.5382628,23.0024418 30.6912534,22.7633187 L30.7898378,22.62397 L33.612247,19.0042608 C34.1016426,18.3766162 34.1270839,17.5114509 33.6925059,16.8596605 L33.5923424,16.7234214 L30.7071905,13.1535213 C30.5277788,12.9315289 30.403151,12.6713701 30.3422462,12.3941039 L30.3134215,12.2258597 L29.7496452,7.67059419 C29.651452,6.8772013 29.0528025,6.24535389 28.2796369,6.09535256 L28.1227735,6.07187181 L23.5583625,5.58768175 C23.274527,5.55757264 23.0024418,5.46173774 22.7633187,5.30874714 L22.62397,5.21016267 L19.0042608,2.38775354 Z" fill="#1E1E1E"/>
      <path d="M24.2928935,13.2928935 C24.6834178,12.9023692 25.3165827,12.9023692 25.707107,13.2928935 C26.067591,13.6533774 26.0953205,14.2206085 25.7902956,14.6128997 L25.707107,14.707107 L16.0000003,24.4142138 L10.2928935,18.707107 C9.90236918,18.3165827 9.90236918,17.6834178 10.2928935,17.2928935 C10.6533774,16.9324095 11.2206085,16.90468 11.6128997,17.2097049 L11.707107,17.2928935 L16.0000003,21.5850003 L24.2928935,13.2928935 Z" fill="#AF20D5"/>
  </g>
</svg>
