<svg width="24px" height="24px" viewBox="0 0 24 24" xmlns="http://www.w3.org/2000/svg">
  <path fill="#1e1e1e" d="M19.3137085,17.3137085 L6.3137085,17.3137085 C3.55228475,17.3137085 1.3137085,15.0751322 1.3137085,12.3137085 C1.3137085,9.55228475 3.55228475,7.3137085 6.3137085,7.3137085 L15.3137085,7.3137085 C15.8659932,7.3137085 16.3137085,7.76142375 16.3137085,8.3137085 C16.3137085,8.86599325 15.8659932,9.3137085 15.3137085,9.3137085 L15.3137085,9.3137085 L6.3137085,9.3137085 C4.65685425,9.3137085 3.3137085,10.6568542 3.3137085,12.3137085 C3.3137085,13.9705627 4.65685425,15.3137085 6.3137085,15.3137085 L19.3137085,15.3137085 L19.3137085,15.3137085 L19.8137085,15.3137085 C20.6421356,15.3137085 21.3137085,14.6421356 21.3137085,13.8137085 C21.3137085,12.9852814 20.6421356,12.3137085 19.8137085,12.3137085 L19.3137085,12.3137085 L19.3137085,12.3137085 L9.3137085,12.3137085 C8.76142375,12.3137085 8.3137085,11.8659932 8.3137085,11.3137085 C8.3137085,10.7614237 8.76142375,10.3137085 9.3137085,10.3137085 L9.3137085,10.3137085 L19.3137085,10.3137085 L19.3137085,10.3137085 L19.8137085,10.3137085 C21.7467051,10.3137085 23.3137085,11.8807119 23.3137085,13.8137085 C23.3137085,15.7467051 21.7467051,17.3137085 19.8137085,17.3137085 L19.3137085,17.3137085 L19.3137085,17.3137085 Z" transform="translate(12.313708, 12.313708) rotate(45.000000) translate(-12.313708, -12.313708)"/>
</svg>
