<svg width="48px" height="48px" viewBox="0 0 48 48" xmlns="http://www.w3.org/2000/svg">
  <path fill="#D0021B" d="M24,0 C37.254834,0 48,10.745166 48,24 C48,37.254834 37.254834,48 24,48 C19.1356277,48 14.4852231,46.5488066 10.5446038,43.8761679 C10.0875287,43.5661667 9.96830168,42.9443285 10.2783029,42.4872533 C10.5883041,42.0301781 11.2101423,41.9109512 11.6672175,42.2209524 C15.2791214,44.6706471 19.5390836,46 24,46 C36.1502645,46 46,36.1502645 46,24 C46,11.8497355 36.1502645,2 24,2 C11.8497355,2 2,11.8497355 2,24 C2,28.9981435 3.67036158,33.7388464 6.69468312,37.5856225 C7.03602595,38.0197925 6.96077473,38.6484698 6.52660481,38.9898126 C6.09243489,39.3311554 5.46375759,39.2559042 5.12241476,38.8217343 C1.82340857,34.6255739 0,29.4505038 0,24 C0,10.745166 10.745166,0 24,0 Z M18.6128994,17.2097046 L18.7071068,17.2928932 L24,22.585 L29.2928932,17.2928932 L29.3871006,17.2097046 C29.7793918,16.9046797 30.3466228,16.9324093 30.7071068,17.2928932 C31.0675907,17.6533772 31.0953203,18.2206082 30.7902954,18.6128994 L30.7071068,18.7071068 L25.415,24 L30.7071068,29.2928932 C31.0976311,29.6834175 31.0976311,30.3165825 30.7071068,30.7071068 C30.3466228,31.0675907 29.7793918,31.0953203 29.3871006,30.7902954 L29.2928932,30.7071068 L24,25.415 L18.7071068,30.7071068 L18.6128994,30.7902954 C18.2206082,31.0953203 17.6533772,31.0675907 17.2928932,30.7071068 C16.9324093,30.3466228 16.9046797,29.7793918 17.2097046,29.3871006 L17.2928932,29.2928932 L22.585,24 L17.2928932,18.7071068 C16.9023689,18.3165825 16.9023689,17.6834175 17.2928932,17.2928932 C17.6533772,16.9324093 18.2206082,16.9046797 18.6128994,17.2097046 Z"/>
</svg>
