<svg xmlns="http://www.w3.org/2000/svg" viewBox="0 0 45 33">
	<path d="M22.6,0.1c3.4,0,6.9,1.3,9.5,3.9c2,2,3.2,4.6,3.7,7.2C41,11.9,45,16.5,45,22c0,6-4.9,11-11,11H9.5C4.4,33,0,28.8,0,23.5c0-5.1,4-9.2,9.1-9.4C9.1,10.3,10.4,6.8,13.1,4C15.7,1.4,19.2,0.1,22.6,0.1z M22.6,2c-2.9,0-5.8,1.1-8.1,3.3c-2.6,2.6-3.7,6.1-3.3,9.5c0,0.3-0.1,0.6-0.2,0.8c-0.2,0.2-0.5,0.3-0.8,0.3H9.6c-4.2,0-7.5,3.3-7.5,7.5S5.4,31,9.6,31H34c5,0,9-4,9-9c0-4.7-3.6-8.5-8.1-8.9c-0.5,0-0.8-0.4-0.9-0.9c-0.3-2.5-1.4-4.9-3.3-6.8C28.5,3.2,25.5,2,22.6,2z M23.1,11.9c0.5,0,1,0.4,1,1l0,0v10.5l3.3-3.3c0.4-0.4,1-0.4,1.4,0s0.4,1,0,1.4l0,0l-5,5c-0.4,0.4-1,0.4-1.4,0l0,0l-5-5c-0.4-0.4-0.4-1,0-1.4s1-0.4,1.4,0l0,0l3.3,3.3V12.9C22.1,12.4,22.5,11.9,23.1,11.9z"/>
</svg>
