<svg viewBox="0 0 24 24" xmlns="http://www.w3.org/2000/svg">
  <path d="M12,5 C12.5522847,5 13,5.39175084 13,5.875 L13,5.875 L13,11 L18.125,11 C18.5737314,11 18.9435688,11.3860402 18.9941132,11.8833789 L19,12 C19,12.5522847 18.6082492,13 18.125,13 L18.125,13 L13,13 L13,18.125 C13,18.5737314 12.6139598,18.9435688 12.1166211,18.9941132 L12,19 C11.4477153,19 11,18.6082492 11,18.125 L11,18.125 L11,13 L5.875,13 C5.42626864,13 5.05643123,12.6139598 5.00588676,12.1166211 L5,12 C5,11.4477153 5.39175084,11 5.875,11 L5.875,11 L11,11 L11,5.875 C11,5.42626864 11.3860402,5.05643123 11.8833789,5.00588676 Z" />
</svg>
