<svg xmlns="http://www.w3.org/2000/svg" viewBox="0 0 44 33">
	<path d="M26.5,0C36.2,0,44,7.4,44,16.5c0,9-7.7,16.3-17.2,16.5l-0.3,0H23c-0.6,0-1-0.4-1-1c0-0.5,0.4-0.9,0.9-1l0.1,0h3.5
		C35.1,31,42,24.5,42,16.5C42,8.6,35.2,2.2,26.8,2l-0.3,0h-9C8.9,2,2,8.5,2,16.5S8.9,31,17.5,31c0.6,0,1,0.4,1,1s-0.4,1-1,1
		C7.8,33,0,25.6,0,16.5C0,7.5,7.7,0.2,17.2,0l0.3,0H26.5z M21.8,18c-4.3,0.2-7.8,4.2-7.8,7.9c0,0.6-0.4,1-1,1s-1-0.4-1-1
		c0-3.7,2.6-7.5,6.3-9.1C16.9,15.7,16,13.9,16,12c0-3.3,2.7-6,6-6s6,2.7,6,6c0,1.9-0.9,3.7-2.3,4.8c3.7,1.6,6.3,5.5,6.3,9.1
		c0,0.6-0.4,1-1,1s-1-0.4-1-1c0-3.7-3.6-7.9-8-7.9L21.8,18z M22,8c-2.2,0-4,1.8-4,4s1.8,4,4,4s4-1.8,4-4S24.2,8,22,8z"/>
</svg>
