<svg xmlns="http://www.w3.org/2000/svg" viewBox="0 0 45 33">
	<path d="M22.5,0.1c3.4,0,6.9,1.3,9.5,3.9c2,2,3.3,4.6,3.7,7.2c5.2,0.8,9.2,5.3,9.2,10.8c0,6-4.9,11-11,11H9.5c-5.2,0-9.5-4.2-9.5-9.5c0-5.1,4-9.2,9.1-9.4C9,10.4,10.2,6.7,13,4C15.6,1.4,19.1,0.1,22.5,0.1z M22.5,2c-2.9,0-5.9,1.1-8.1,3.3c-2.6,2.6-3.7,6.1-3.3,9.5c0,0.3-0.1,0.6-0.2,0.8S10.4,16,10.1,16H9.5c-4.2,0-7.5,3.3-7.5,7.5S5.4,31,9.5,31H34c5,0,9-4,9-9c0-4.7-3.6-8.5-8.1-8.9c-0.5,0-0.8-0.4-0.9-0.9c-0.3-2.5-1.4-4.9-3.3-6.8C28.4,3.2,25.4,2,22.5,2z M23.7,12.3l5,5c0.4,0.4,0.4,1,0,1.4c-0.4,0.4-1,0.4-1.4,0L24,15.4V26c0,0.6-0.4,1-1,1c-0.6,0-1-0.4-1-1V15.4l-3.3,3.3c-0.4,0.4-1,0.4-1.4,0c-0.4-0.4-0.4-1,0-1.4l5-5C22.7,11.9,23.3,11.9,23.7,12.3z"/>
</svg>
