<svg width="24px" height="24px" viewBox="0 0 24 24" xmlns="http://www.w3.org/2000/svg">
    <g>
        <rect fill="#EB2F46" x="0" y="0" width="24" height="24" rx="12"></rect>
        <path d="M12,15.5 C12.8284271,15.5 13.5,16.1715729 13.5,17 C13.5,17.8284271 12.8284271,18.5 12,18.5 C11.1715729,18.5 10.5,17.8284271 10.5,17 C10.5,16.1715729 11.1715729,15.5 12,15.5 Z M12,6 C12.5128358,6 12.9355072,6.38604019 12.9932723,6.88337887 L13,7 L13,13 C13,13.5522847 12.5522847,14 12,14 C11.4871642,14 11.0644928,13.6139598 11.0067277,13.1166211 L11,13 L11,7 C11,6.44771525 11.4477153,6 12,6 Z" fill="#FFFFFF" fill-rule="nonzero"></path>
    </g>
</svg>
