<svg width="173" height="24" xmlns="http://www.w3.org/2000/svg"><g fill="none" fill-rule="evenodd"><path d="M135.828.248c.69.07 1.362.18 2.035.346.933.23 1.793.622 2.637 1.061.74.385 1.386.902 2.02 1.44a10.74 10.74 0 011.889 2.066c.809 1.172 1.413 2.437 1.765 3.82.246.967.42 1.943.421 2.955-.087.79-.096 1.597-.279 2.363-.346 1.45-.812 2.865-1.77 4.06-.277.346-.495.74-.778 1.08-.96 1.16-2.096 2.117-3.453 2.778-.714.347-1.45.674-2.208.9-.907.27-1.846.42-2.802.475-.9.052-1.782-.041-2.65-.22-1.663-.34-3.228-.93-4.615-1.953-1.16-.856-2.169-1.857-2.977-3.044-.377-.554-.68-1.168-.948-1.784a14.178 14.178 0 01-.676-1.95 8.334 8.334 0 01-.244-1.577c-.041-.582-.009-1.168-.012-1.752-.01-1.628.436-3.14 1.147-4.59.574-1.17 1.302-2.238 2.239-3.128.718-.682 1.49-1.321 2.363-1.822a12.003 12.003 0 014.005-1.428 10.75 10.75 0 012.891-.096zM90.067.654c.826-.002 1.605.195 2.371.457.433.148.876.308 1.26.55a7.644 7.644 0 011.93 1.745c.496.627.834 1.323 1.075 2.067.3.926.482 1.874.294 2.856-.049.256-.037.529-.116.773a19.307 19.307 0 01-.623 1.672c-.126.292-.324.556-.51.817-.116.16-.134.3-.028.464.141.218.286.434.418.658.613 1.044.904 2.187.925 3.383.017.924-.128 1.84-.55 2.684-.212.424-.396.87-.667 1.254-.832 1.176-1.874 2.09-3.264 2.586a6.863 6.863 0 01-2.382.39c-3.798-.02-7.596-.007-11.394-.009-1.23 0-1.961-.576-2.339-1.743a3.573 3.573 0 01-.157-1.129V1.401c0-.74.002-.74.748-.741 4.337 0 8.673.005 13.009-.006zm80.355.035c1.205.158 2.05.843 2.372 2.066.04.146.04.304.04.457.002 6.397.002 12.793.002 19.19 0 .092-.004.184-.009.277-.01.203-.124.306-.323.315-.169.006-.338.009-.507.009H161.48v-.002c-3.505 0-7.011-.011-10.517.008-.944.005-1.558-.473-2.032-1.2a2.397 2.397 0 01-.38-1.35c.012-6.336.008-12.671.008-19.006 0-.747.047-.793.777-.793h3.645c.138 0 .278-.004.414.016.242.034.389.18.414.425.012.111.014.224.014.337v.17l.001 15.545c0 .756 0 .756.767.756.969 0 1.938.003 2.906 0 .532-.003.569-.04.57-.586V6.252c0-1.507-.003-3.014.004-4.521 0-.244.04-.489.067-.732.028-.242.177-.342.413-.337.169.003.338-.002.507-.002h3.46c.138 0 .277.002.415.01.179.012.284.112.297.291.012.169.013.338.013.507v15.684c.001.757.002.757.763.757h2.86c.663 0 .703-.001.705-.606V4.635l.001-3.183c0-.138 0-.277.016-.414.025-.23.155-.37.393-.37.815-.003 1.64-.084 2.442.021zM123.048.662c.435.02.588.158.596.588.012.676.05 1.357-.008 2.028-.13 1.512-1.104 2.654-2.737 2.646-2.66-.012-5.32-.003-7.98-.003h-.368c-.594.005-.62.028-.62.63v11.762c0 .569.007 1.138-.002 1.706-.014.802-.2 1.554-.733 2.177-.403.47-.913.782-1.547.798-.814.021-1.63.01-2.444.006-.494-.003-.538-.051-.54-.57-.004-1.03-.002-2.06-.002-3.09V1.399c0-.694.002-.736.625-.739h15.483c.093 0 .185-.003.277.002zM41.544.665c.27 0 .54.08.809.123.09.014.18.04.271.045 1.145.066 2.159.525 3.159 1.036.692.353 1.296.834 1.856 1.351.456.421.816.95 1.195 1.449.516.68.835 1.469 1.121 2.262.153.425.135.911.284 1.338.211.605.161 1.216.142 1.823a8.382 8.382 0 01-.202 1.539c-.112.504-.302.992-.456 1.487-.246.792-.732 1.444-1.208 2.106-.771 1.071-1.774 1.877-2.926 2.482-.575.302-1.222.472-1.843.682-.288.097-.607.111-.885.226-.328.135-.658.138-.995.138-1.245.003-2.49.002-3.735.003-.749 0-.75.001-.75.727v1.015c0 1.122-.608 1.855-1.535 2.37-.164.092-.38.123-.574.126-.876.014-1.752.012-2.628.007-.462-.003-.519-.064-.52-.549l-.002-2.79V1.56c0-.832.068-.9.89-.9 2.844 0 5.688-.004 8.532.005zM55.532.657c.506.015 1.014-.003 1.521.006.413.007.507.106.53.523.01.169.005.338.005.507l.001 11.76v.535l.141.042c.263-.316.534-.625.785-.95.365-.472.714-.957 1.073-1.434.35-.463.7-.927 1.06-1.384.472-.603.957-1.198 1.431-1.8.445-.564.883-1.135 1.326-1.7.577-.738 1.153-1.475 1.734-2.21.731-.927 1.467-1.85 2.201-2.776.228-.286.454-.574.687-.857.157-.19.364-.262.612-.26 1.322.004 2.644-.002 3.966.004.415.002.47.07.485.49.003.092.001.185.001.277 0 6.318-.004 12.636.005 18.954.002 1.2-.584 1.994-1.609 2.517a1.03 1.03 0 01-.444.091c-.907.01-1.814.013-2.72.007-.423-.003-.483-.068-.493-.481-.009-.323-.003-.645-.003-.968V9.76c-.335.251-.51.513-.707.753-.165.2-.335.396-.496.6-.227.287-.447.582-.672.871-1.364 1.756-2.73 3.51-4.093 5.268-.742.958-1.473 1.925-2.217 2.881-.697.895-1.4 1.787-2.116 2.665a.633.633 0 01-.435.194c-1.414.014-2.828.012-4.242.005-.346-.001-.402-.07-.426-.402-.008-.107-.004-.215-.004-.323 0-6.333.004-12.666-.005-19-.001-.703.223-1.292.706-1.787a1.8 1.8 0 01.396-.304 3.737 3.737 0 012.016-.524zm76.745 5.508c-.46.202-.918.449-1.304.764a6.916 6.916 0 00-1.6 1.831 5.97 5.97 0 00-.763 2.19c-.101.678-.132 1.322.025 1.981.042.178.073.358.103.539.064.397.246.75.418 1.107.454.943 1.077 1.772 1.924 2.368 1.11.78 2.35 1.256 3.798 1.148.168.02.338.026.51.022l.26-.016a5.093 5.093 0 001.043-.214c1.775-.55 3.011-1.733 3.84-3.354.385-.754.612-1.567.558-2.436-.026-.429.052-.877-.045-1.286-.243-1.017-.636-1.965-1.29-2.82-.815-1.062-1.869-1.737-3.108-2.1a6.59 6.59 0 00-1.472-.257l-.293-.01a6.278 6.278 0 00-2.604.543zM90.11 14.5l-1.306.008-2.611-.004c-1.352.003-2.704 0-4.056.004-.518.001-.558.042-.561.547a176.95 176.95 0 000 2.304c0 .067.001.126.004.177.014.287.077.354.36.368l.089.003.104.001 2.534.003 2.535-.001 2.535-.016c.401-.004.807-.15 1.199-.269a.937.937 0 00.443-.315c.4-.528.608-1.111.308-1.76-.308-.666-.8-1.06-1.577-1.05zM37.382 6.475l-.002 1.613v4.702c.001.252.009.417.053.528l.025.051c.086.14.267.17.641.199.077.005.154.006.23.006.392 0 .785.01 1.177.014l.587-.002.586-.025c.667-.045 1.342-.023 1.996-.262 1.396-.51 2.176-1.548 2.42-2.941a3.636 3.636 0 00-.762-2.984c-.717-.9-1.638-1.388-2.755-1.44-1.212-.055-2.427-.015-3.64-.011-.184 0-.307.006-.39.036l-.044.021c-.107.066-.12.204-.122.496zm52.724-.567l-.979.02-.979.002c-.653-.002-1.306-.01-1.958-.01v.001c-1.367 0-2.734-.003-4.101.002-.454.002-.507.056-.511.504-.007.706-.004 1.412-.002 2.119 0 .652.003.694.576.697h3.938l3.825-.001h.161l.161-.006c.922-.073 1.68-.949 1.568-1.815-.12-.933-1.001-1.536-1.7-1.513z" fill="#05AEEF"/><path d="M10.26 5.813v4.336c0 .123.005.246-.005.369-.026.303-.087.36-.402.383-.092.007-.184.004-.276.004H.813c-.108 0-.216.003-.323-.007-.32-.03-.435-.142-.468-.458-.013-.121-.008-.245-.008-.368V1.539c0-.139-.006-.278.011-.415C.062.83.205.696.507.664.63.653.753.658.876.658h8.856c.466.013.525.065.526.544.005 1.537.002 3.075.002 4.612" fill="#ED028D"/><path d="M12.283 5.808v-4.24c0-.139-.006-.278.008-.415.03-.301.167-.444.46-.48.137-.017.277-.01.415-.01h8.48c.124 0 .247-.005.37.006.326.032.466.168.5.49.013.122.008.246.008.369v8.619c-.013.619-.146.754-.77.754-2.903.002-5.807.001-8.71 0h-.14c-.527-.015-.618-.1-.62-.622-.004-1.49-.001-2.98-.001-4.471" fill="#A4CE3C"/><path d="M17.374 22.994H13.04c-.138 0-.277-.003-.415-.007-.227-.007-.332-.133-.336-.353a17.285 17.285 0 01-.004-.322v-8.623c0-.704.05-.754.766-.754 2.89-.002 5.779 0 8.668 0 .077 0 .154-.003.23.002.37.023.523.166.565.534.014.122.01.246.01.368v8.577c-.008.53-.05.576-.585.577-1.521.003-3.043 0-4.565 0" fill="#F3ACCA"/><path d="M10.258 17.981v4.243c0 .123.005.246-.004.369-.023.33-.08.385-.425.407-.076.005-.153.003-.23.003-1.63 0-3.26-.02-4.889.005-.975.015-1.81-.357-2.556-.901C.731 21.067.08 19.588.024 17.86c-.047-1.397-.01-2.798-.01-4.197 0-.122.002-.247.022-.367.033-.206.16-.33.37-.351.152-.015.306-.015.46-.015h8.67c.72 0 .721.001.721.716l.001 4.335" fill="#05AEEF"/></g></svg>