<svg width="158" height="55" xmlns="http://www.w3.org/2000/svg"><g fill="none"><path d="M37.293 47.293a1 1 0 011.32-.083l.094.083 6 6a1 1 0 01-1.32 1.497l-.094-.083-6-6a1 1 0 010-1.414z" fill="#A3CE3B"/><path d="M44.707 47.293a1 1 0 00-1.32-.083l-.094.083-6 6a1 1 0 001.32 1.497l.094-.083 6-6a1 1 0 000-1.414z" fill="#A3CE3B"/><path d="M24.293 22.293a1 1 0 011.32-.083l.094.083 4 4a1 1 0 01-1.32 1.497l-.094-.083-4-4a1 1 0 010-1.414z" fill="#ED028D"/><path d="M29.707 22.293a1 1 0 00-1.32-.083l-.094.083-4 4a1 1 0 001.32 1.497l.094-.083 4-4a1 1 0 000-1.414z" fill="#ED028D"/><path d="M140.293 43.293a1 1 0 011.32-.083l.094.083 4 4a1 1 0 01-1.32 1.497l-.094-.083-4-4a1 1 0 010-1.414z" fill="#04ADEF"/><path d="M145.707 43.293a1 1 0 00-1.32-.083l-.094.083-4 4a1 1 0 001.32 1.497l.094-.083 4-4a1 1 0 000-1.414z" fill="#04ADEF"/><path d="M125.707 4.293a1 1 0 00-1.32-.083l-.094.083-9 9a1 1 0 001.32 1.497l.094-.083 9-9a1 1 0 000-1.414z" fill="#F1ACCB"/><path d="M115.293 4.293a1 1 0 011.32-.083l.094.083 9 9a1 1 0 01-1.32 1.497l-.094-.083-9-9a1 1 0 010-1.414z" fill="#F1ACCB"/><path d="M125 32a5 5 0 100 10 5 5 0 000-10zm0 2a3 3 0 110 6 3 3 0 010-6zM39 0a3 3 0 100 6 3 3 0 000-6zm0 2a1 1 0 110 2 1 1 0 010-2z" fill="#ED028D"/><circle fill="#F1ACCB" cx="11.5" cy="38.5" r="1.5"/><circle fill="#A3CE3B" cx="156.5" cy="26.5" r="1.5"/><circle fill="#A3CE3B" cx="1.5" cy="23.5" r="1.5"/><path d="M79 1c14.912 0 27 12.088 27 27S93.912 55 79 55a27 27 0 01-27-27C52 13.088 64.088 1 79 1zm0 2C65.193 3 54 14.193 54 28a25 25 0 0025 25c13.807 0 25-11.193 25-25S92.807 3 79 3z" fill="#04ADEF"/><path d="M80.837 32.562c.565-.303.601-.886.42-1.313l-.023-.053-.185-.363-.09-.213c-1.394-3.284 3.807-5.428 1.71-10.367-1.064-2.51-3.935-3.78-7.379-2.318-1.948.827-2.935 2.065-3.76 3.833-.134.278-.127.59-.014.857.102.24.273.42.474.523.327.176.64.17.906.057.24-.102.462-.322.608-.573.659-1.194 1.251-1.95 2.56-2.505 1.895-.804 3.811-.074 4.503 1.554 1.586 3.738-3.34 5.64-1.72 9.457.068.16.147.347.253.523l.258.458c.257.457.759.748 1.373.488l.106-.045zm1.919 4.667c.827-.351 1.109-1.321.769-2.122-.295-.694-1.188-1.166-2.016-.814-.96.408-1.242 1.378-.948 2.072.34.8 1.234 1.272 2.195.864z" fill="#04ADEF"/></g></svg>