<svg width="158" height="55" xmlns="http://www.w3.org/2000/svg"><path d="M37.293 47.293a1 1 0 011.32-.083l.094.083 6 6a1 1 0 01-1.32 1.497l-.094-.083-6-6a1 1 0 010-1.414z" fill="#A3CE3B"/><path d="M44.707 47.293a1 1 0 00-1.32-.083l-.094.083-6 6a1 1 0 001.32 1.497l.094-.083 6-6a1 1 0 000-1.414z" fill="#A3CE3B"/><path d="M24.293 22.293a1 1 0 011.32-.083l.094.083 4 4a1 1 0 01-1.32 1.497l-.094-.083-4-4a1 1 0 010-1.414z" fill="#ED028D"/><path d="M29.707 22.293a1 1 0 00-1.32-.083l-.094.083-4 4a1 1 0 001.32 1.497l.094-.083 4-4a1 1 0 000-1.414z" fill="#ED028D"/><path d="M140.293 43.293a1 1 0 011.32-.083l.094.083 4 4a1 1 0 01-1.32 1.497l-.094-.083-4-4a1 1 0 010-1.414z" fill="#04ADEF"/><path d="M145.707 43.293a1 1 0 00-1.32-.083l-.094.083-4 4a1 1 0 001.32 1.497l.094-.083 4-4a1 1 0 000-1.414z" fill="#04ADEF"/><path d="M125.707 4.293a1 1 0 00-1.32-.083l-.094.083-9 9a1 1 0 001.32 1.497l.094-.083 9-9a1 1 0 000-1.414z" fill="#F1ACCB"/><path d="M115.293 4.293a1 1 0 011.32-.083l.094.083 9 9a1 1 0 01-1.32 1.497l-.094-.083-9-9a1 1 0 010-1.414z" fill="#F1ACCB"/><path d="M125 32a5 5 0 100 10 5 5 0 000-10zm0 2a3 3 0 110 6 3 3 0 010-6zM39 0a3 3 0 100 6 3 3 0 000-6zm0 2a1 1 0 110 2 1 1 0 010-2z" fill="#ED028D"/><circle fill="#F1ACCB" cx="11.5" cy="38.5" r="1.5"/><circle fill="#A3CE3B" cx="156.5" cy="26.5" r="1.5"/><circle fill="#A3CE3B" cx="1.5" cy="23.5" r="1.5"/><path opacity=".5" d="M79 1c14.912 0 27 12.088 27 27S93.912 55 79 55a27 27 0 01-27-27C52 13.088 64.088 1 79 1zm0 2C65.193 3 54 14.193 54 28a25 25 0 0025 25c13.807 0 25-11.193 25-25S92.807 3 79 3z" fill="#04ADEF"/><path d="M71.293 20.293a1 1 0 011.32-.083l.094.083 14 14a1 1 0 01-1.32 1.497l-.094-.083-14-14a1 1 0 010-1.414z" fill="#04ADEF"/><path d="M86.707 20.293a1 1 0 00-1.32-.083l-.094.083-14 14a1 1 0 001.32 1.497l.094-.083 14-14a1 1 0 000-1.414z" fill="#04ADEF"/></svg>